# xmcd
#
# Track frame offsets: 
#        150
#        12738
#        27716
#        36004
#        48707
#        61060
#        70719
#        85391
#        97198
#        108111
#        120081
#        133291
#
# Disc length: 1958 seconds
#
# Revision: 0
# Processed by: cddbd v1.5.2PL0 Copyright (c) Steve Scherf et al.
# Submitted via: ExactAudioCopy v0.99pb5
#
DISCID=a507a40c
DTITLE=Jiøí Králík - Mountain Air
DYEAR=1900
DGENRE=Country
TTITLE0=Wheel Hoss
TTITLE1=Wonderin' Boy
TTITLE2=Bill Cheathum
TTITLE3=Festival Waltz
TTITLE4=Rove Riley Rove
TTITLE5=Oh My Little Darlin'
TTITLE6=The Dead March
TTITLE7=There Is No Doubt About It
TTITLE8=Ashokan Farewell
TTITLE9=Kansas City Kitty
TTITLE10=I Know You're Married
TTITLE11=Whisper To Me
EXTD=
EXTT0=
EXTT1=
EXTT2=
EXTT3=
EXTT4=
EXTT5=
EXTT6=
EXTT7=
EXTT8=
EXTT9=
EXTT10=
EXTT11=
PLAYORDER=
